<svg width="8" height="12" viewBox="0 0 8 12" fill="none" xmlns="http://www.w3.org/2000/svg">
<path fill-rule="evenodd" clip-rule="evenodd" d="M3.97779 0.119448C3.9851 0.11844 3.99241 0.117432 3.99997 0.117432L4.00004 0.117496H4.00407H4.01617C4.02574 0.117496 4.03532 0.119008 4.04439 0.121528C6.22581 0.144238 8.00001 1.80256 8.00001 3.85946C8.00001 4.5298 7.80495 5.15883 7.47581 5.70217V5.70621C7.47228 5.71427 7.46825 5.72233 7.46372 5.7304V5.7299C7.46306 5.73088 7.46218 5.73166 7.46124 5.73249C7.46073 5.73294 7.46021 5.7334 7.45968 5.73393V5.73796H7.45565C7.45464 5.74249 7.45313 5.74652 7.45162 5.75056L7.45162 5.75056L4.14117 11.1699C4.11546 11.2118 4.06959 11.2375 4.0202 11.2375C3.9708 11.2375 3.92494 11.2118 3.89923 11.1699L0.548394 5.75056C0.547735 5.74957 0.546861 5.7488 0.545913 5.74796C0.54541 5.74752 0.544886 5.74705 0.544361 5.74653C0.539825 5.73998 0.535793 5.73342 0.532265 5.72637C0.530752 5.72233 0.52924 5.7183 0.528232 5.71427V5.71024C0.195561 5.16482 0 4.5333 0 3.8594C0 1.80237 1.77419 0.144145 3.95561 0.121464C3.96317 0.121464 3.97048 0.120456 3.97779 0.119448ZM6.16926 4.00853C6.16926 2.81152 5.19704 1.83924 3.99997 1.83924C2.80296 1.83924 1.83068 2.81152 1.83068 4.00853C1.83068 5.20553 2.80296 6.17782 3.99997 6.17782C5.19697 6.17782 6.16926 5.20553 6.16926 4.00853Z" fill="black"/>
</svg>
